<?xml version="1.0" standalone="no"?>
<!DOCTYPE svg PUBLIC "-//W3C//DTD SVG 20010904//EN"
 "http://www.w3.org/TR/2001/REC-SVG-20010904/DTD/svg10.dtd">
<svg version="1.0" xmlns="http://www.w3.org/2000/svg"
 width="361.000000pt" height="433.000000pt" viewBox="0 0 361.000000 433.000000"
 preserveAspectRatio="xMidYMid meet">

<g transform="translate(0.000000,433.000000) scale(0.100000,-0.100000)"
fill="#000000" stroke="none">
<path d="M1276 3944 c-148 -36 -264 -122 -321 -237 -48 -98 -59 -166 -51 -318
12 -222 53 -433 110 -563 20 -44 23 -62 15 -72 -13 -15 -92 -46 -164 -63 -27
-7 -58 -18 -67 -25 -23 -17 -133 -206 -213 -367 -78 -154 -99 -224 -90 -287
24 -163 317 -1176 372 -1285 7 -15 22 -27 32 -27 23 0 39 20 81 95 18 33 62
108 97 166 34 59 63 116 63 126 0 34 -32 114 -44 110 -6 -2 -29 -33 -51 -70
-40 -67 -54 -78 -72 -54 -6 6 -31 83 -57 169 l-47 157 20 38 c11 21 65 108
121 193 160 245 229 406 218 504 -3 23 -30 96 -62 163 -33 73 -56 136 -56 156
0 39 31 91 92 153 50 52 49 56 -37 254 -72 165 -99 253 -120 390 -36 232 -1
384 111 490 114 108 294 152 469 115 86 -18 125 -34 125 -50 0 -7 -37 -21 -87
-33 -118 -29 -122 -34 -100 -120 9 -37 17 -74 17 -84 0 -28 -54 -63 -164 -108
-99 -39 -106 -44 -106 -70 0 -15 6 -33 14 -39 7 -6 110 -30 227 -52 288 -54
355 -87 457 -223 101 -137 148 -284 138 -434 -5 -75 -47 -273 -81 -383 -4 -13
-29 -17 -133 -22 -320 -17 -547 -39 -563 -56 -14 -14 -15 -51 -7 -366 7 -260
12 -353 22 -363 7 -7 53 -17 102 -22 92 -10 486 -40 516 -40 16 0 16 -4 -3
-57 -40 -109 -218 -495 -244 -529 -18 -23 -34 -34 -51 -34 -29 0 -100 54 -145
111 l-29 37 21 45 c24 49 21 117 -6 153 -12 17 -15 17 -29 4 -8 -8 -43 -69
-77 -135 -34 -66 -75 -139 -91 -162 -33 -49 -63 -56 -78 -19 -11 29 -56 66
-82 66 -36 0 -57 -20 -122 -118 -36 -54 -82 -112 -103 -127 -156 -118 -217
-231 -135 -252 15 -3 92 -1 172 5 134 10 241 6 376 -13 59 -8 108 26 112 80 6
65 -6 99 -53 154 -25 29 -45 58 -45 65 0 13 51 115 75 149 11 16 16 14 60 -32
75 -78 115 -140 115 -178 0 -18 -7 -59 -16 -91 -14 -50 -14 -62 -2 -91 l14
-34 295 -3 c277 -3 298 -1 327 16 63 39 40 79 -121 211 -162 133 -217 188
-217 219 0 27 64 149 205 392 l90 155 215 7 c338 11 796 48 813 65 5 5 14 171
19 367 8 317 7 360 -6 370 -16 11 -359 41 -604 53 -82 3 -136 10 -135 16 0 6
8 54 17 108 22 129 15 146 -108 237 -121 90 -126 97 -136 175 -16 126 -117
295 -256 424 -78 73 -150 116 -221 132 -29 7 -53 15 -53 19 0 4 61 12 136 19
91 8 180 23 272 48 202 53 241 60 427 77 275 26 275 26 275 41 0 57 -169 109
-532 165 -258 41 -321 59 -501 147 -83 41 -185 83 -226 94 -89 23 -247 24
-335 3z m488 -255 c21 -16 26 -29 26 -63 0 -23 -5 -47 -12 -54 -19 -19 -73
-14 -92 7 -27 30 -25 89 3 112 30 24 42 24 75 -2z m-78 -1614 c43 -18 64 -63
64 -140 l0 -56 -47 3 -48 3 -5 50 c-4 39 -9 51 -24 53 -10 2 -22 -2 -27 -10
-5 -7 -9 -78 -9 -158 0 -80 4 -151 9 -158 5 -8 17 -12 27 -10 15 2 20 14 22
56 l3 52 50 0 49 0 0 -60 c0 -107 -34 -143 -132 -143 -115 0 -131 35 -126 283
2 140 6 170 21 194 34 51 107 69 173 41z m1379 0 c40 -16 55 -46 55 -111 l0
-44 -44 0 c-43 0 -45 1 -48 33 -2 24 -8 32 -23 32 -15 0 -21 -8 -23 -31 -3
-27 7 -41 72 -106 l76 -74 0 -70 c0 -89 -22 -128 -80 -144 -54 -15 -109 -3
-142 31 -24 23 -28 36 -28 84 l0 56 48 -3 c45 -3 47 -4 52 -38 4 -27 10 -35
25 -35 15 0 21 8 23 34 3 30 -3 40 -62 95 -71 66 -86 95 -85 159 0 68 20 110
59 129 43 22 79 23 125 3z m-1165 -100 l0 -105 30 0 29 0 3 103 3 102 48 3 47
3 0 -261 0 -261 -47 3 -48 3 -3 108 -3 107 -29 0 -30 0 0 -110 0 -110 -50 0
-50 0 0 260 0 260 50 0 50 0 0 -105z m328 -113 l2 -213 23 3 c22 3 22 4 25
216 l2 212 50 0 50 0 0 -215 c0 -249 -6 -276 -66 -301 -53 -22 -119 -11 -156
26 l-28 28 0 232 0 231 48 -3 47 -3 3 -213z m366 131 c9 -49 22 -113 28 -143
l11 -55 23 130 c13 71 26 135 28 142 4 9 27 13 71 13 l65 0 0 -260 0 -260 -45
0 -45 0 -1 133 -1 132 -14 -60 c-8 -33 -22 -93 -30 -132 l-16 -73 -34 0 c-41
0 -39 -5 -75 158 l-27 127 -1 -142 -1 -143 -45 0 -45 0 0 260 0 260 69 0 68 0
17 -87z m594 -462 c5 -32 -23 -54 -49 -40 -11 5 -19 18 -19 27 0 45 62 56 68
13z m-1983 -778 c111 -126 175 -212 183 -246 14 -53 6 -71 -27 -62 -14 4 -113
9 -220 10 -110 2 -198 8 -203 13 -15 15 -2 31 82 103 56 49 79 77 95 115 33
84 59 102 90 67z m744 -91 c163 -137 179 -153 174 -171 -4 -17 -19 -18 -205
-15 -123 2 -205 7 -212 14 -21 21 40 189 78 213 55 37 81 30 165 -41z"/>
<path d="M3167 1529 c4 -13 8 -18 11 -10 2 7 -1 18 -6 23 -8 8 -9 4 -5 -13z"/>
<path d="M3131 1524 c0 -11 3 -14 6 -6 3 7 2 16 -1 19 -3 4 -6 -2 -5 -13z"/>
</g>
</svg>
