<?xml version="1.0" standalone="no"?>
<!DOCTYPE svg PUBLIC "-//W3C//DTD SVG 20010904//EN"
 "http://www.w3.org/TR/2001/REC-SVG-20010904/DTD/svg10.dtd">
<svg version="1.0" xmlns="http://www.w3.org/2000/svg"
 width="16.000000pt" height="16.000000pt" viewBox="0 0 16.000000 16.000000"
 preserveAspectRatio="xMidYMid meet">

<g transform="translate(0.000000,16.000000) scale(0.100000,-0.100000)"
fill="#000000" stroke="none">
<path d="M30 145 c-7 -8 -9 -26 -5 -43 4 -20 1 -33 -10 -42 -8 -7 -15 -21 -15
-32 0 -23 29 -36 40 -17 10 15 7 65 -5 92 -4 9 -5 24 -1 32 7 18 38 20 34 2
-2 -6 8 -23 20 -35 20 -20 22 -30 17 -63 -8 -45 10 -55 25 -14 7 19 5 33 -10
60 l-20 36 32 6 c31 6 31 6 -18 19 -63 17 -69 17 -84 -1z"/>
</g>
</svg>
